<?xml version="1.0" standalone="no"?>
<!DOCTYPE svg PUBLIC "-//W3C//DTD SVG 20010904//EN"
 "http://www.w3.org/TR/2001/REC-SVG-20010904/DTD/svg10.dtd">
<svg version="1.0" xmlns="http://www.w3.org/2000/svg"
 width="150.000000pt" height="150.000000pt" viewBox="0 0 150.000000 150.000000"
 preserveAspectRatio="xMidYMid meet">

<g transform="translate(0.000000,150.000000) scale(0.100000,-0.100000)"
fill="#000000" stroke="none">
<path d="M610 1335 c-19 -13 -41 -24 -47 -24 -7 -1 -13 -5 -13 -11 0 -5 -5
-10 -11 -10 -20 0 -39 -28 -100 -147 -34 -65 -66 -121 -73 -125 -8 -6 -7 -10
3 -17 8 -5 14 -29 15 -57 1 -33 5 -48 14 -46 6 1 12 -5 12 -13 0 -12 4 -13 19
-6 10 6 21 7 25 4 3 -3 6 0 6 8 0 8 6 26 14 41 8 15 17 42 21 60 11 56 16 68
27 68 7 0 7 -4 0 -13 -7 -8 -11 -61 -10 -135 1 -67 -2 -125 -5 -128 -3 -4 -14
-3 -24 1 -17 8 -17 8 0 12 9 3 17 11 17 19 0 23 -37 57 -54 51 -18 -7 -22 -28
-5 -25 6 2 14 -3 16 -10 3 -8 -1 -10 -14 -5 -14 5 -16 4 -7 -8 6 -8 14 -28 17
-45 5 -26 2 -33 -16 -42 -21 -10 -20 -11 8 -11 26 -1 33 -7 44 -36 7 -19 17
-35 22 -35 5 0 9 -9 9 -21 0 -14 4 -18 13 -12 22 14 81 32 89 27 16 -10 7 -24
-15 -24 -13 0 -34 -11 -46 -24 -22 -23 -22 -26 -10 -105 7 -44 10 -83 7 -86
-2 -3 -18 -8 -35 -11 -33 -7 -41 6 -64 99 -18 75 -27 64 -12 -16 7 -40 16 -78
18 -86 3 -8 0 -18 -7 -23 -10 -6 -10 -8 1 -8 11 0 9 -4 -5 -15 -25 -19 -30
-19 -38 2 -36 107 -44 138 -40 145 3 4 -2 8 -11 8 -9 0 -13 5 -10 10 3 6 -1
10 -9 10 -12 0 -14 -7 -9 -32 3 -18 9 -35 13 -38 11 -8 32 -79 28 -92 -7 -20
-38 -18 -38 3 0 10 -5 18 -12 16 -7 -1 -12 6 -13 17 0 27 -33 46 -45 26 -7
-11 -10 -6 -10 20 0 26 3 31 12 22 7 -7 17 -12 22 -12 6 0 3 5 -6 11 -11 6
-15 16 -11 27 5 14 4 15 -8 6 -8 -7 -43 -22 -79 -35 -49 -18 -77 -36 -113 -74
-71 -73 -77 -93 -77 -250 l0 -135 129 0 129 0 7 30 c6 27 19 36 48 31 4 0 7
14 7 32 0 20 10 43 26 62 14 17 33 46 41 65 l16 35 13 -45 c8 -24 15 -57 16
-72 1 -16 5 -28 9 -28 9 0 18 38 10 45 -3 4 -6 10 -7 13 0 4 -6 25 -13 48 -13
39 -12 42 14 68 31 31 62 28 67 -7 2 -12 14 -27 26 -33 17 -8 20 -13 10 -17
-10 -4 -10 -6 0 -6 7 -1 15 6 18 14 8 20 54 20 54 0 0 -18 12 -19 27 -4 8 8
13 8 18 0 3 -6 -7 -22 -23 -36 -35 -29 -65 -116 -56 -161 6 -31 7 -31 66 -32
57 -1 60 0 53 21 -19 61 -18 66 9 73 14 3 26 12 26 19 0 26 164 4 215 -29 37
-23 44 -46 20 -66 -12 -10 -18 -10 -31 0 -12 11 -18 10 -32 -3 -15 -16 -12
-17 47 -17 l63 0 -6 35 c-4 20 -3 35 2 35 6 0 13 -16 16 -35 5 -26 12 -35 27
-35 18 0 20 4 14 33 -11 51 -51 112 -93 139 -97 65 -204 89 -284 64 -23 -7
-28 -5 -28 8 0 9 8 16 20 16 11 0 20 4 20 9 0 17 -12 41 -21 41 -4 0 -6 -8 -2
-17 6 -16 4 -16 -15 1 -15 13 -20 26 -16 38 3 11 -2 30 -11 44 -18 27 -13 46
7 26 7 -7 23 -12 37 -11 23 0 20 3 -16 19 -41 18 -52 37 -45 76 4 20 7 21 45
12 54 -12 62 -22 15 -16 -21 2 -38 0 -38 -4 0 -4 9 -9 20 -9 39 -3 43 -4 48
-17 4 -14 -19 -12 -30 3 -5 6 -8 5 -8 -4 0 -10 -3 -11 -14 -2 -9 8 -16 8 -20
2 -4 -6 12 -15 36 -22 48 -13 139 -19 132 -8 -2 4 16 10 41 13 25 4 45 11 45
16 0 5 7 7 15 4 17 -7 20 13 6 50 -7 17 -7 26 2 30 11 4 -17 10 -35 7 -5 0 -8
4 -8 9 0 6 9 10 20 10 11 0 23 7 26 15 11 28 20 15 36 -52 45 -185 59 -252 62
-293 5 -60 4 -56 23 -76 19 -18 53 -107 53 -136 0 -10 5 -18 11 -18 6 0 8 8 4
19 -3 11 -1 22 5 26 5 3 10 0 10 -7 0 -8 9 -14 19 -14 13 0 19 7 18 18 -1 10
-7 18 -14 18 -7 0 -13 6 -13 13 0 9 -3 8 -9 -2 -12 -19 -31 -4 -31 25 0 15 6
24 16 24 8 0 12 5 9 10 -4 6 -15 8 -26 5 -21 -7 -27 10 -6 18 7 3 5 6 -5 6
-12 1 -18 9 -18 26 0 14 -8 42 -18 63 -10 20 -27 73 -36 117 -28 127 -47 207
-56 230 -6 16 -1 37 21 80 19 39 29 73 29 103 0 33 6 52 21 68 26 27 39 82 27
113 -9 25 -1 91 11 91 4 0 5 18 3 39 -3 27 -13 48 -33 67 -16 15 -29 33 -29
39 0 18 -72 82 -119 104 -28 13 -53 18 -69 14 -19 -4 -23 -3 -17 7 5 9 2 10
-13 6 -12 -4 -35 1 -59 14 -49 26 -79 25 -123 -5z m292 -450 c2 -19 2 -32 -1
-30 -2 3 -11 -1 -20 -8 -14 -10 -14 -10 -5 3 6 8 11 27 10 43 -2 39 11 33 16
-8z m-305 3 c-3 -8 -6 -5 -6 6 -1 11 2 17 5 13 3 -3 4 -12 1 -19z m34 -38 c5
0 9 -4 9 -9 0 -6 -9 -9 -20 -8 -22 1 -24 6 -13 34 7 17 8 17 11 1 2 -10 8 -18
13 -18z m-64 -292 c-3 -7 -5 -2 -5 12 0 14 2 19 5 13 2 -7 2 -19 0 -25z m320
-58 c-1 -11 -6 -20 -12 -20 -5 0 -4 -4 3 -9 10 -6 7 -10 -11 -15 -14 -3 -33
-8 -44 -12 -10 -3 -7 1 7 10 14 8 32 26 40 40 16 31 19 32 17 6z m-130 -26
c-3 -3 -12 -4 -19 -1 -8 3 -5 6 6 6 11 1 17 -2 13 -5z m-130 -136 c-3 -7 -5
-2 -5 12 0 14 2 19 5 13 2 -7 2 -19 0 -25z m-24 -5 c-7 -2 -19 -2 -25 0 -7 3
-2 5 12 5 14 0 19 -2 13 -5z m-543 -24 c0 -6 -4 -7 -10 -4 -5 3 -10 11 -10 16
0 6 5 7 10 4 6 -3 10 -11 10 -16z m511 -2 c-1 -4 -1 -13 -1 -20 0 -7 -9 -13
-20 -14 -11 -1 -20 2 -20 8 0 5 5 9 10 9 6 0 10 7 10 16 0 9 5 14 11 12 6 -2
10 -7 10 -11z m-531 -41 c0 -3 -4 -8 -10 -11 -5 -3 -10 -1 -10 4 0 6 5 11 10
11 6 0 10 -2 10 -4z m23 -63 c-3 -7 -6 -13 -8 -13 -2 0 -5 6 -8 13 -3 8 1 14
8 14 7 0 11 -6 8 -14z m801 -14 c8 -9 2 -10 -23 -5 -18 3 -49 6 -68 6 -22 0
-32 4 -28 11 9 13 105 4 119 -12z m-141 -6 c-37 -13 -62 -47 -74 -98 -7 -30
-17 -55 -22 -55 -15 0 2 80 24 111 20 28 69 60 79 51 3 -3 0 -7 -7 -9z m224
-23 c12 -10 20 -20 16 -23 -3 -4 -17 3 -31 13 -13 11 -31 20 -38 20 -8 0 -14
5 -14 11 0 13 38 2 67 -21z m55 -47 c10 -9 18 -20 18 -25 0 -14 -22 -9 -36 10
-25 33 -13 44 18 15z"/>
<path d="M1307 901 c-2 -10 0 -25 4 -34 6 -10 5 -18 -1 -22 -5 -3 -10 -15 -10
-27 0 -18 -2 -19 -17 -7 -15 13 -15 12 -4 -8 6 -13 9 -23 5 -23 -3 0 -1 -7 6
-15 10 -11 9 -18 -4 -31 -9 -8 -14 -19 -12 -22 2 -4 -14 -18 -35 -32 -37 -23
-50 -40 -30 -40 6 0 13 5 16 10 8 13 45 13 45 0 0 -6 -12 -15 -26 -20 -24 -10
-29 -35 -7 -35 6 0 15 -3 19 -7 4 -5 2 -8 -4 -8 -5 0 -17 -3 -25 -6 -9 -3 -17
3 -22 18 l-8 23 -4 -25 c-3 -14 -10 -31 -15 -38 -14 -16 -2 -28 14 -15 7 6 23
14 36 17 16 6 22 3 22 -8 0 -10 -9 -16 -24 -16 -20 0 -23 -4 -19 -21 6 -20 3
-20 -36 6 -33 22 -44 26 -54 16 -9 -10 -9 -11 4 -6 9 3 22 -1 29 -10 12 -15
10 -15 -16 -9 -16 4 -39 11 -52 15 -14 6 -21 5 -17 0 3 -5 20 -13 37 -16 57
-13 117 -43 148 -75 32 -33 90 -139 90 -165 0 -8 5 -15 10 -15 6 0 10 -5 10
-11 0 -15 69 -151 87 -171 9 -10 13 -28 11 -43 -4 -21 -1 -25 18 -25 l24 0 0
375 c0 314 -2 381 -15 405 -13 25 -13 30 0 44 25 24 18 37 -19 34 -19 -1 -41
4 -50 11 -9 8 -16 9 -16 3 0 -14 25 -33 33 -25 4 3 8 2 8 -3 6 -40 5 -54 -3
-54 -6 0 -8 7 -4 15 3 9 0 15 -9 15 -8 0 -21 10 -29 22 -9 12 -16 19 -16 14 0
-5 -7 -3 -15 4 -9 7 -14 18 -12 24 4 10 -20 35 -34 36 -4 0 -9 -8 -12 -19z
m-62 -391 c3 -5 -1 -10 -9 -10 -9 0 -16 5 -16 10 0 6 4 10 9 10 6 0 13 -4 16
-10z m11 -43 c37 -40 39 -52 2 -22 -35 29 -46 45 -30 45 4 0 16 -10 28 -23z"/>
<path d="M1476 902 c-3 -6 -1 -14 5 -17 15 -10 25 3 12 16 -7 7 -13 7 -17 1z"/>
<path d="M1366 882 c-3 -5 1 -9 9 -9 8 0 15 4 15 9 0 4 -4 8 -9 8 -6 0 -12 -4
-15 -8z"/>
<path d="M1241 764 c0 -11 3 -14 6 -6 3 7 2 16 -1 19 -3 4 -6 -2 -5 -13z"/>
<path d="M421 594 c0 -11 3 -14 6 -6 3 7 2 16 -1 19 -3 4 -6 -2 -5 -13z"/>
<path d="M1150 580 c0 -5 5 -10 10 -10 6 0 10 5 10 10 0 6 -4 10 -10 10 -5 0
-10 -4 -10 -10z"/>
<path d="M935 520 c-3 -5 -1 -10 4 -10 6 0 11 5 11 10 0 6 -2 10 -4 10 -3 0
-8 -4 -11 -10z"/>
<path d="M390 454 c0 -8 5 -12 10 -9 6 3 10 10 10 16 0 5 -4 9 -10 9 -5 0 -10
-7 -10 -16z"/>
<path d="M885 420 c-3 -5 -2 -10 4 -10 5 0 13 5 16 10 3 6 2 10 -4 10 -5 0
-13 -4 -16 -10z"/>
<path d="M420 395 c0 -8 2 -15 4 -15 2 0 6 7 10 15 3 8 1 15 -4 15 -6 0 -10
-7 -10 -15z"/>
<path d="M802 351 c4 -13 18 -16 19 -4 0 4 -5 9 -11 12 -7 2 -11 -2 -8 -8z"/>
<path d="M760 305 c0 -18 19 -40 26 -32 4 4 0 15 -9 24 -9 10 -17 13 -17 8z"/>
<path d="M802 291 c3 -15 53 -39 62 -30 8 8 -6 49 -16 49 -6 0 -8 -7 -4 -15 3
-9 0 -15 -9 -15 -8 0 -12 6 -9 13 3 8 -2 14 -11 14 -9 0 -15 -7 -13 -16z"/>
<path d="M733 293 c-18 -7 -16 -23 2 -23 8 0 15 7 15 15 0 8 -1 15 -2 14 -2 0
-9 -3 -15 -6z"/>
<path d="M894 288 c-13 -21 -11 -47 3 -53 11 -3 13 1 8 15 -4 13 -1 22 9 26 9
3 13 10 10 15 -7 13 -21 11 -30 -3z"/>
<path d="M930 260 c-6 -12 -9 -24 -7 -27 3 -2 11 5 17 17 6 12 9 24 7 27 -3 2
-11 -5 -17 -17z"/>
<path d="M951 233 c0 -25 1 -26 9 -8 12 27 12 35 0 35 -5 0 -10 -12 -9 -27z"/>
<path d="M510 225 c-11 -13 -10 -14 4 -9 9 3 16 10 16 15 0 13 -6 11 -20 -6z"/>
<path d="M1271 223 c1 -10 5 -29 9 -43 7 -22 8 -21 9 12 1 20 -3 40 -9 43 -5
3 -10 -2 -9 -12z"/>
<path d="M977 224 c-8 -8 1 -24 13 -24 4 0 10 7 14 15 5 15 -14 21 -27 9z"/>
<path d="M583 203 c9 -9 20 -13 24 -9 4 4 1 11 -7 16 -25 16 -35 11 -17 -7z"/>
<path d="M530 199 c0 -6 9 -13 20 -16 11 -3 20 -9 20 -14 0 -5 5 -9 10 -9 18
0 10 22 -10 27 -11 3 -20 9 -20 14 0 5 -4 9 -10 9 -5 0 -10 -5 -10 -11z"/>
<path d="M1300 185 c0 -5 5 -17 10 -25 5 -8 10 -10 10 -5 0 6 -5 17 -10 25 -5
8 -10 11 -10 5z"/>
<path d="M510 170 c0 -5 5 -10 10 -10 6 0 10 5 10 10 0 6 -4 10 -10 10 -5 0
-10 -4 -10 -10z"/>
<path d="M540 150 c0 -15 21 -23 32 -12 6 6 2 11 -11 15 -12 3 -21 1 -21 -3z"/>
<path d="M506 142 c-3 -5 8 -16 25 -26 16 -9 29 -13 29 -8 0 14 -48 43 -54 34z"/>
<path d="M1165 140 c3 -5 17 -10 31 -10 14 0 36 -11 50 -25 14 -14 30 -25 36
-25 7 0 6 -6 -2 -15 -10 -12 -10 -21 -2 -40 14 -30 41 -32 72 -5 24 20 22 39
-2 24 -37 -24 -71 -7 -46 23 10 12 10 17 1 20 -7 2 -28 18 -49 34 -35 27 -103
42 -89 19z"/>
<path d="M1283 144 c-13 -6 -6 -34 8 -34 4 0 5 7 2 17 -5 12 -3 14 7 8 9 -5
11 -4 6 3 -4 7 -8 12 -9 11 -1 0 -7 -3 -14 -5z"/>
<path d="M1327 113 c-4 -3 -7 -11 -7 -17 0 -6 5 -5 12 2 6 6 9 14 7 17 -3 3
-9 2 -12 -2z"/>
<path d="M500 70 c0 -5 -7 -10 -15 -10 -17 0 -20 -16 -5 -25 5 -3 7 -12 3 -20
-6 -18 13 -20 21 -2 5 9 7 9 12 0 9 -21 26 -15 19 7 -4 11 -2 20 4 20 6 0 11
5 11 10 0 6 -7 10 -15 10 -8 0 -15 5 -15 10 0 6 -4 10 -10 10 -5 0 -10 -4 -10
-10z"/>
<path d="M1310 65 c-20 -24 -4 -29 19 -6 14 14 17 21 7 21 -7 0 -19 -7 -26
-15z"/>
<path d="M1378 18 c-17 -17 -17 -18 1 -18 10 0 21 7 24 15 9 22 -6 24 -25 3z"/>
</g>
</svg>
